<svg width="25" height="24" viewBox="0 0 25 24" fill="none" xmlns="http://www.w3.org/2000/svg">
<path d="M19.6425 6.10352e-05C20.882 6.10352e-05 21.9419 0.440165 22.8221 1.32037C23.7024 2.20058 24.1425 3.26048 24.1425 4.50006V19.5001C24.1425 20.7396 23.7024 21.7995 22.8221 22.6797C21.9419 23.56 20.882 24.0001 19.6425 24.0001H16.705V14.7032H19.8143L20.2831 11.0782H16.705V8.76569C16.705 8.18235 16.8274 7.74485 17.0721 7.45319C17.3169 7.16152 17.7935 7.01569 18.5018 7.01569L20.4081 7.00006V3.76569C19.7518 3.67194 18.8247 3.62506 17.6268 3.62506C16.2102 3.62506 15.0774 4.04173 14.2284 4.87506C13.3794 5.70839 12.955 6.88548 12.955 8.40631V11.0782H9.82996V14.7032H12.955V24.0001H4.64246C3.40287 24.0001 2.34298 23.56 1.46277 22.6797C0.58256 21.7995 0.142456 20.7396 0.142456 19.5001V4.50006C0.142456 3.26048 0.58256 2.20058 1.46277 1.32037C2.34298 0.440165 3.40287 6.10352e-05 4.64246 6.10352e-05H19.6425Z" fill="#4D8CD6"/>
</svg>
