<svg width="16" height="19" viewBox="0 0 16 19" fill="none" xmlns="http://www.w3.org/2000/svg">
<path d="M15.4027 7.49214C15.4027 12.9012 8.4482 17.5376 8.4482 17.5376C8.4482 17.5376 1.49365 12.9012 1.49365 7.49214C1.49365 5.64768 2.22636 3.87877 3.53059 2.57454C4.83482 1.27031 6.60374 0.537598 8.4482 0.537598C10.2927 0.537598 12.0616 1.27031 13.3658 2.57454C14.67 3.87877 15.4027 5.64768 15.4027 7.49214Z" stroke="#888888" stroke-linecap="round" stroke-linejoin="round"/>
<path d="M8.4482 9.81032C9.72849 9.81032 10.7664 8.77244 10.7664 7.49214C10.7664 6.21185 9.72849 5.17396 8.4482 5.17396C7.1679 5.17396 6.13002 6.21185 6.13002 7.49214C6.13002 8.77244 7.1679 9.81032 8.4482 9.81032Z" stroke="#888888" stroke-linecap="round" stroke-linejoin="round"/>
</svg>
