<svg width="22" height="21" viewBox="0 0 22 21" fill="none" xmlns="http://www.w3.org/2000/svg">
<path d="M14.7031 7.02539C16.2944 7.02539 17.8205 7.65753 18.9457 8.78275C20.0709 9.90797 20.7031 11.4341 20.7031 13.0254V20.0254H16.7031V13.0254C16.7031 12.495 16.4923 11.9863 16.1173 11.6112C15.7422 11.2361 15.2335 11.0254 14.7031 11.0254C14.1726 11.0254 13.6639 11.2361 13.2889 11.6112C12.9138 11.9863 12.7031 12.495 12.7031 13.0254V20.0254H8.70306V13.0254C8.70306 11.4341 9.33521 9.90797 10.4604 8.78275C11.5856 7.65753 13.1118 7.02539 14.7031 7.02539Z" stroke="#ECECEC" stroke-linecap="round" stroke-linejoin="round"/>
<path d="M4.70306 8.02539H0.703064V20.0254H4.70306V8.02539Z" stroke="#ECECEC" stroke-linecap="round" stroke-linejoin="round"/>
<path d="M2.70306 5.02539C3.80763 5.02539 4.70306 4.12996 4.70306 3.02539C4.70306 1.92082 3.80763 1.02539 2.70306 1.02539C1.59849 1.02539 0.703064 1.92082 0.703064 3.02539C0.703064 4.12996 1.59849 5.02539 2.70306 5.02539Z" stroke="#ECECEC" stroke-linecap="round" stroke-linejoin="round"/>
</svg>
