<svg width="25" height="26" viewBox="0 0 25 26" fill="none" xmlns="http://www.w3.org/2000/svg">
<path d="M24.7436 8.07334C24.7302 7.0635 24.5411 6.0637 24.185 5.11867C23.8761 4.32154 23.4044 3.5976 22.7999 2.99311C22.1954 2.38862 21.4714 1.91687 20.6743 1.608C19.7414 1.25781 18.7559 1.06846 17.7596 1.048C16.477 0.99067 16.0703 0.97467 12.8143 0.97467C9.5583 0.97467 9.14097 0.97467 7.86764 1.048C6.87185 1.06861 5.88677 1.25796 4.9543 1.608C4.15705 1.91666 3.433 2.38833 2.82848 2.99285C2.22396 3.59736 1.75229 4.32141 1.44364 5.11867C1.09274 6.05085 0.9038 7.03615 0.884969 8.032C0.827636 9.316 0.810303 9.72267 0.810303 12.9787C0.810303 16.2347 0.810303 16.6507 0.884969 17.9253C0.904969 18.9227 1.09297 19.9067 1.44364 20.8413C1.75281 21.6383 2.22483 22.3621 2.82955 22.9664C3.43427 23.5706 4.15839 24.0421 4.95564 24.3507C5.88555 24.7149 6.8708 24.9178 7.86897 24.9507C9.15297 25.008 9.55964 25.0253 12.8156 25.0253C16.0716 25.0253 16.489 25.0253 17.7623 24.9507C18.7585 24.9311 19.7441 24.7421 20.677 24.392C21.4739 24.0828 22.1976 23.6109 22.8021 23.0065C23.4065 22.402 23.8784 21.6783 24.1876 20.8813C24.5383 19.948 24.7263 18.964 24.7463 17.9653C24.8036 16.6827 24.821 16.276 24.821 13.0187C24.8183 9.76267 24.8183 9.34934 24.7436 8.07334ZM12.8063 19.136C9.40097 19.136 6.6423 16.3773 6.6423 12.972C6.6423 9.56667 9.40097 6.808 12.8063 6.808C14.4411 6.808 16.0089 7.45742 17.1649 8.6134C18.3209 9.76937 18.9703 11.3372 18.9703 12.972C18.9703 14.6068 18.3209 16.1746 17.1649 17.3306C16.0089 18.4866 14.4411 19.136 12.8063 19.136ZM19.2156 8.01734C19.0268 8.01751 18.8399 7.98045 18.6654 7.90828C18.4909 7.83611 18.3324 7.73025 18.1989 7.59674C18.0654 7.46324 17.9595 7.30472 17.8874 7.13025C17.8152 6.95579 17.7781 6.76881 17.7783 6.58C17.7783 6.39134 17.8155 6.20452 17.8877 6.03022C17.9599 5.85591 18.0657 5.69753 18.1991 5.56413C18.3325 5.43072 18.4909 5.3249 18.6652 5.2527C18.8395 5.1805 19.0263 5.14334 19.215 5.14334C19.4036 5.14334 19.5905 5.1805 19.7648 5.2527C19.9391 5.3249 20.0974 5.43072 20.2309 5.56413C20.3643 5.69753 20.4701 5.85591 20.5423 6.03022C20.6145 6.20452 20.6516 6.39134 20.6516 6.58C20.6516 7.37467 20.009 8.01734 19.2156 8.01734Z" fill="url(#paint0_linear_656_1001)"/>
<defs>
<linearGradient id="paint0_linear_656_1001" x1="12.8156" y1="0.97467" x2="12.8156" y2="25.0253" gradientUnits="userSpaceOnUse">
<stop stop-color="#F5168F"/>
<stop offset="1" stop-color="#FFBE18"/>
</linearGradient>
</defs>
</svg>
