<svg width="22" height="22" viewBox="0 0 22 22" fill="none" xmlns="http://www.w3.org/2000/svg">
<path d="M16.5467 5.86768H16.5567M6.04672 1.36768H16.0467C18.8081 1.36768 21.0467 3.60625 21.0467 6.36768V16.3677C21.0467 19.1291 18.8081 21.3677 16.0467 21.3677H6.04672C3.2853 21.3677 1.04672 19.1291 1.04672 16.3677V6.36768C1.04672 3.60625 3.2853 1.36768 6.04672 1.36768ZM15.0467 10.7377C15.1701 11.57 15.028 12.4199 14.6405 13.1667C14.253 13.9135 13.6399 14.5191 12.8884 14.8974C12.1368 15.2757 11.2852 15.4073 10.4545 15.2737C9.62386 15.14 8.8565 14.7478 8.26157 14.1529C7.66665 13.558 7.27447 12.7906 7.1408 11.9599C7.00714 11.1293 7.1388 10.2776 7.51706 9.52611C7.89532 8.77459 8.50092 8.16147 9.24772 7.77397C9.99452 7.38648 10.8445 7.24432 11.6767 7.36773C12.5257 7.49362 13.3116 7.8892 13.9184 8.49604C14.5253 9.10288 14.9209 9.88881 15.0467 10.7377Z" stroke="#ECECEC" stroke-linecap="round" stroke-linejoin="round"/>
</svg>
