<svg width="25" height="24" viewBox="0 0 25 24" fill="none" xmlns="http://www.w3.org/2000/svg">
<path d="M0.798706 3.02709V20.973C0.798706 22.6667 2.13204 24.0001 3.82573 24.0001H21.7717C22.6005 24.0001 23.3933 23.6037 23.8978 23.0992C24.4383 22.5586 24.7987 21.8739 24.7987 20.973V3.02709C24.7987 1.33339 23.4654 6.10352e-05 21.7717 6.10352e-05H3.82573C2.92483 6.10352e-05 2.24015 0.360421 1.69961 0.900962C1.1951 1.40547 0.798706 2.19826 0.798706 3.02709ZM4.04195 5.40547C4.04195 4.25231 4.97889 3.2433 6.13204 3.2433C7.32123 3.2433 8.2942 4.25231 8.2942 5.40547C8.2942 6.59466 7.32123 7.53159 6.13204 7.53159C4.97889 7.53159 4.04195 6.59466 4.04195 5.40547ZM9.84375 20.2163V9.22529C9.84375 8.97303 10.096 8.75682 10.2762 8.75682H13.3392C13.7717 8.75682 13.7717 9.26132 13.7717 9.58565C14.6365 8.72078 15.7537 8.50457 16.9068 8.50457C19.7176 8.50457 21.5194 9.8379 21.5194 12.7929V20.2163C21.5194 20.4685 21.3032 20.6847 21.087 20.6847H17.9158C17.6636 20.6847 17.4834 20.4325 17.4834 20.2163V13.5136C17.4834 12.3965 17.1591 11.7838 15.8978 11.7838C14.3122 11.7838 13.9158 12.8289 13.9158 14.2343V20.2163C13.9158 20.4685 13.6636 20.6847 13.4113 20.6847H10.2762C10.096 20.6847 9.84375 20.4325 9.84375 20.2163ZM4.11402 20.2163V9.22529C4.11402 8.97303 4.36627 8.75682 4.54645 8.75682H7.68159C7.96988 8.75682 8.15006 8.937 8.15006 9.22529V20.2163C8.15006 20.4685 7.93384 20.6847 7.68159 20.6847H4.54645C4.33024 20.6847 4.11402 20.4325 4.11402 20.2163Z" fill="#4D8CD6"/>
</svg>
