<svg width="28" height="27" viewBox="0 0 28 27" fill="none" xmlns="http://www.w3.org/2000/svg">
<path d="M17.0583 5.98112C18.1979 6.20345 19.2451 6.76075 20.0661 7.58171C20.887 8.40267 21.4443 9.44993 21.6667 10.5895M17.0583 1.31445C19.4258 1.57746 21.6335 2.63766 23.319 4.32096C25.0044 6.00427 26.0673 8.21063 26.3333 10.5778M25.1667 19.8878V23.3878C25.168 23.7127 25.1014 24.0343 24.9713 24.332C24.8411 24.6297 24.6502 24.897 24.4108 25.1166C24.1713 25.3363 23.8887 25.5035 23.5809 25.6076C23.2731 25.7117 22.9469 25.7504 22.6233 25.7211C19.0333 25.331 15.5848 24.1043 12.555 22.1395C9.73614 20.3482 7.34623 17.9583 5.555 15.1395C3.58331 12.0959 2.35629 8.63061 1.97334 5.02445C1.94418 4.70183 1.98252 4.37667 2.08592 4.06968C2.18932 3.76269 2.3555 3.48059 2.5739 3.24134C2.79229 3.0021 3.05811 2.81095 3.35443 2.68006C3.65074 2.54918 3.97107 2.48142 4.295 2.48112H7.795C8.36119 2.47555 8.91009 2.67604 9.33939 3.04524C9.76869 3.41444 10.0491 3.92714 10.1283 4.48779C10.2761 5.60786 10.55 6.70764 10.945 7.76612C11.102 8.1837 11.1359 8.63752 11.0429 9.07381C10.9498 9.51011 10.7337 9.91058 10.42 10.2278L8.93834 11.7095C10.5992 14.6303 13.0175 17.0486 15.9383 18.7095L17.42 17.2278C17.7372 16.9141 18.1377 16.6979 18.574 16.6049C19.0103 16.5118 19.4641 16.5458 19.8817 16.7028C20.9402 17.0978 22.0399 17.3717 23.16 17.5195C23.7267 17.5994 24.2443 17.8849 24.6143 18.3215C24.9843 18.7582 25.1809 19.3156 25.1667 19.8878Z" stroke="white" stroke-width="2" stroke-linecap="round" stroke-linejoin="round"/>
</svg>
