<svg width="21" height="25" viewBox="0 0 21 25" fill="none" xmlns="http://www.w3.org/2000/svg">
<path d="M19.4663 10.5C19.4663 17.5 10.4663 23.5 10.4663 23.5C10.4663 23.5 1.46631 17.5 1.46631 10.5C1.46631 8.11305 2.41452 5.82387 4.10235 4.13604C5.79017 2.44821 8.07936 1.5 10.4663 1.5C12.8533 1.5 15.1424 2.44821 16.8303 4.13604C18.5181 5.82387 19.4663 8.11305 19.4663 10.5Z" stroke="#5BBA64" stroke-width="2" stroke-linecap="round" stroke-linejoin="round"/>
<path d="M10.4663 13.5C12.1232 13.5 13.4663 12.1569 13.4663 10.5C13.4663 8.84315 12.1232 7.5 10.4663 7.5C8.80945 7.5 7.46631 8.84315 7.46631 10.5C7.46631 12.1569 8.80945 13.5 10.4663 13.5Z" stroke="#5BBA64" stroke-width="2" stroke-linecap="round" stroke-linejoin="round"/>
</svg>
