<svg width="37" height="36" viewBox="0 0 37 36" fill="none" xmlns="http://www.w3.org/2000/svg">
<path d="M26.0861 22.5213H24.4881L23.9217 21.9752C25.904 19.6692 27.0974 16.6756 27.0974 13.419C27.0974 6.1573 21.2112 0.271118 13.9496 0.271118C6.68794 0.271118 0.801758 6.1573 0.801758 13.419C0.801758 20.6806 6.68794 26.5668 13.9496 26.5668C17.2062 26.5668 20.1999 25.3734 22.5058 23.3911L23.0519 23.9574V25.5554L33.1657 35.6489L36.1795 32.635L26.0861 22.5213ZM13.9496 22.5213C8.91296 22.5213 4.84724 18.4556 4.84724 13.419C4.84724 8.38232 8.91296 4.31661 13.9496 4.31661C18.9862 4.31661 23.0519 8.38232 23.0519 13.419C23.0519 18.4556 18.9862 22.5213 13.9496 22.5213Z" fill="white"/>
<path d="M19.0064 14.4303H14.9609V18.4758H12.9382V14.4303H8.89271V12.4076H12.9382V8.36211H14.9609V12.4076H19.0064V14.4303Z" fill="white"/>
</svg>
