<svg width="61" height="62" viewBox="0 0 61 62" fill="none" xmlns="http://www.w3.org/2000/svg">
<path d="M38.0861 35.5213H36.4881L35.9217 34.9752C37.904 32.6692 39.0974 29.6756 39.0974 26.419C39.0974 19.1573 33.2112 13.2711 25.9496 13.2711C18.6879 13.2711 12.8018 19.1573 12.8018 26.419C12.8018 33.6806 18.6879 39.5668 25.9496 39.5668C29.2062 39.5668 32.1999 38.3734 34.5058 36.3911L35.0519 36.9574V38.5554L45.1657 48.6489L48.1795 45.635L38.0861 35.5213ZM25.9496 35.5213C20.913 35.5213 16.8472 31.4556 16.8472 26.419C16.8472 21.3823 20.913 17.3166 25.9496 17.3166C30.9862 17.3166 35.0519 21.3823 35.0519 26.419C35.0519 31.4556 30.9862 35.5213 25.9496 35.5213Z" fill="white"/>
<path d="M31.0064 27.4303H26.9609V31.4758H24.9382V27.4303H20.8927V25.4076H24.9382V21.3621H26.9609V25.4076H31.0064V27.4303Z" fill="white"/>
</svg>
