<svg width="24" height="20" viewBox="0 0 24 20" fill="none" xmlns="http://www.w3.org/2000/svg">
<path d="M22.8892 1.43413C21.9316 2.10961 20.8713 2.62624 19.7492 2.96413C19.147 2.27164 18.3466 1.78082 17.4563 1.55805C16.566 1.33529 15.6287 1.39132 14.7713 1.71858C13.9139 2.04584 13.1777 2.62853 12.6622 3.38784C12.1467 4.14716 11.8769 5.04646 11.8892 5.96413V6.96413C10.1319 7.0097 8.3905 6.61994 6.82023 5.82957C5.24996 5.03921 3.89954 3.87276 2.88922 2.43413C2.88922 2.43413 -1.11078 11.4341 7.88922 15.4341C5.82975 16.8321 3.37638 17.5331 0.889221 17.4341C9.88922 22.4341 20.8892 17.4341 20.8892 5.93413C20.8883 5.65558 20.8615 5.37772 20.8092 5.10413C21.8298 4.09762 22.55 2.82684 22.8892 1.43413Z" stroke="#ECECEC" stroke-linecap="round" stroke-linejoin="round"/>
</svg>
