<svg width="25" height="24" viewBox="0 0 25 24" fill="none" xmlns="http://www.w3.org/2000/svg">
<path d="M21.4708 24.0001H3.47083C2.6427 24.0001 1.93567 23.7071 1.34973 23.1212C0.763794 22.5352 0.470825 21.8282 0.470825 21.0001V3.00006C0.470825 2.17194 0.763794 1.4649 1.34973 0.878967C1.93567 0.29303 2.6427 6.10352e-05 3.47083 6.10352e-05H21.4708C22.299 6.10352e-05 23.006 0.29303 23.5919 0.878967C24.1779 1.4649 24.4708 2.17194 24.4708 3.00006V21.0001C24.4708 21.8282 24.1779 22.5352 23.5919 23.1212C23.006 23.7071 22.299 24.0001 21.4708 24.0001ZM19.5255 6.00006C19.4318 6.04694 19.2911 6.13678 19.1036 6.26959C18.9161 6.4024 18.7638 6.50397 18.6466 6.57428C18.5294 6.64459 18.3849 6.71881 18.213 6.79694C18.0411 6.87506 17.8771 6.92975 17.7208 6.961C17.1427 6.32037 16.4318 6.00006 15.588 6.00006C13.7599 6.00006 12.8458 6.76569 12.8458 8.29694V9.70319C10.3302 9.56256 8.40051 8.63287 7.05676 6.91412C6.66614 7.32037 6.47083 7.76569 6.47083 8.25006C6.47083 9.28131 6.85364 10.0626 7.61926 10.5938C7.50989 10.5938 7.37317 10.6016 7.20911 10.6172C7.04505 10.6329 6.91223 10.6329 6.81067 10.6172C6.70911 10.6016 6.59583 10.5626 6.47083 10.5001C6.47083 11.2188 6.66223 11.8165 7.04505 12.293C7.42786 12.7696 7.9552 13.0782 8.62708 13.2188C8.47083 13.4063 8.25208 13.5001 7.97083 13.5001C7.72083 13.5001 7.50208 13.4297 7.31458 13.2891C7.31458 13.8985 7.60755 14.3712 8.19348 14.7071C8.77942 15.043 9.43958 15.2188 10.174 15.2344C9.8927 15.6563 9.48255 15.9727 8.94348 16.1837C8.40442 16.3946 7.8302 16.5001 7.22083 16.5001C7.00208 16.5001 6.7013 16.4454 6.31848 16.336C5.93567 16.2266 5.73645 16.1719 5.72083 16.1719C5.97083 16.6719 6.48255 17.1016 7.25598 17.461C8.02942 17.8204 9.00989 18.0001 10.1974 18.0001C11.2443 18.0001 12.2208 17.8165 13.1271 17.4493C14.0333 17.0821 14.8068 16.5938 15.4474 15.9844C16.088 15.3751 16.6388 14.6797 17.0997 13.8985C17.5607 13.1172 17.9044 12.3087 18.131 11.4727C18.3575 10.6368 18.4708 9.81256 18.4708 9.00006C18.4708 8.96881 18.5646 8.9024 18.7521 8.80084C18.9396 8.69928 19.1583 8.56647 19.4083 8.4024C19.6583 8.23834 19.8458 8.05475 19.9708 7.85162C19.1271 7.85162 18.5646 7.86725 18.2833 7.8985C18.8302 7.57037 19.2443 6.93756 19.5255 6.00006Z" fill="#00D1FF"/>
</svg>
